<?xml version="1.0" standalone="no"?>
<!DOCTYPE svg PUBLIC "-//W3C//DTD SVG 20010904//EN"
 "http://www.w3.org/TR/2001/REC-SVG-20010904/DTD/svg10.dtd">
<svg version="1.0" xmlns="http://www.w3.org/2000/svg"
 width="16.000000pt" height="16.000000pt" viewBox="0 0 16.000000 16.000000"
 preserveAspectRatio="xMidYMid meet">
<metadata>
Created by potrace 1.11, written by Peter Selinger 2001-2013
</metadata>
<g transform="translate(0.000000,16.000000) scale(0.002319,-0.002319)"
fill="#000000" stroke="none">
<path d="M3390 6838 c-64 -11 -122 -34 -230 -93 -52 -28 -140 -76 -195 -105
-55 -29 -122 -65 -150 -80 -47 -26 -88 -47 -295 -158 -47 -25 -137 -73 -200
-107 -63 -34 -155 -84 -205 -110 -89 -47 -148 -79 -275 -147 -141 -76 -199
-107 -285 -153 -49 -26 -112 -60 -140 -75 -27 -15 -84 -45 -125 -67 -41 -22
-115 -62 -165 -89 -49 -26 -129 -69 -176 -94 -606 -321 -632 -337 -686 -449
-24 -50 -27 -68 -27 -161 0 -95 7 -264 19 -470 24 -399 24 -1631 0 -2045 -11
-203 -18 -372 -19 -475 -1 -108 1 -119 28 -175 48 -98 90 -130 317 -241 631
-308 1118 -559 1579 -814 213 -118 260 -145 322 -181 27 -16 50 -29 52 -29 2
0 34 -18 70 -40 36 -22 68 -40 72 -40 3 0 18 -8 32 -19 40 -27 424 -251 522
-303 110 -58 163 -72 249 -65 90 7 36 -19 886 437 363 195 429 230 570 305 50
27 121 65 158 87 38 21 70 38 72 38 2 0 112 58 245 130 133 71 243 130 245
130 2 0 30 15 62 34 32 18 110 60 173 93 63 33 165 87 225 120 61 33 155 84
210 113 199 106 218 118 257 155 22 20 50 58 62 84 l21 46 0 1580 c0 869 -3
1594 -6 1611 -10 47 -58 140 -96 183 -37 44 -104 90 -212 147 -158 83 -229
121 -306 163 -134 73 -176 96 -280 151 -55 29 -149 80 -210 113 -60 33 -119
63 -130 68 -11 5 -40 21 -65 35 -25 14 -97 53 -160 86 -63 33 -119 64 -125 68
-5 4 -59 33 -120 65 -60 32 -137 72 -170 90 -33 18 -100 54 -150 80 -49 26
-175 94 -280 150 -104 56 -230 124 -280 150 -49 26 -134 72 -188 101 -53 30
-100 54 -103 54 -3 0 -36 17 -72 39 -120 70 -227 96 -322 79z"/>
</g>
</svg>
